<?xml version="1.0" encoding="utf-8"?>
<!-- Generator: Adobe Illustrator 23.1.0, SVG Export Plug-In . SVG Version: 6.00 Build 0)  -->
<svg version="1.1" id="Icon" xmlns="http://www.w3.org/2000/svg" xmlns:xlink="http://www.w3.org/1999/xlink" x="0px" y="0px"
	 viewBox="0 0 256 256" style="enable-background:new 0 0 256 256;" xml:space="preserve">
<style type="text/css">
	.st0{fill:url(#SVGID_1_);}
	.st1{fill:#FFFFFF;}
</style>
<linearGradient id="SVGID_1_" gradientUnits="userSpaceOnUse" x1="238.8696" y1="192.0106" x2="17.1304" y2="63.9894" gradientTransform="matrix(0.8283 -0.5603 0.5603 0.8283 -49.7374 93.6867)">
	<stop  offset="0" style="stop-color:#2E3192"/>
	<stop  offset="0" style="stop-color:#2C3393"/>
	<stop  offset="1" style="stop-color:#0071BC"/>
</linearGradient>
<path class="st0" d="M234.03,56.29c39.61,58.56,24.24,138.13-34.31,177.74S61.58,258.27,21.97,199.71S-2.27,61.58,56.29,21.97
	S194.42-2.27,234.03,56.29"/>
<path id="Bowl" class="st1" d="M222.06,133.41c0,0,6,96-96,96c-96,0-96-96-96-96H222.06z"/>
<path id="Chili" class="st1" d="M179.07,121.51c8.56,4.8,15.44,3.19,20.19-6.57c1.59-3.51,3.62-4.79,6.08-4
	c1.26,0.27,2.06,0.12,2.51-0.38c1.22-2.45,3.25-3.78,6.08-4c0.95,0.86,1.04,1.69,0.38,2.51c-2.29-0.49-3.82,0.63-4.64,3.27
	c0.58,0.87,0.61,1.7,0.38,2.51C215.83,122.71,187.24,140.88,179.07,121.51"/>
<path id="Tomato" class="st1" d="M124.32,62.14c5.05,10.77-2.45,19.32-10.62,21.68c-17.75,8.89-35.98-14.11-17.2-24.17
	c-3.02,0.5-4.86-2.32-4.92-3.16c1.45,2.08,5.14-0.12,5.55-0.28c0.93-0.36,3.36,0.01,4.38,1.21c0.12-0.05-0.15-5.43,1.11-7.74
	c0.86-0.59,1.49-0.29,1.57-0.35c0.19-0.14-1.65,2.93-0.28,6.87c0.83-2.47,2.66-3.33,6.51-4.1c1.21-0.43,1.8-1.3,1.8-1.3
	s0.1,1.53-0.8,3.46C115.8,53.9,121.09,55.25,124.32,62.14"/>
<path id="Potato" class="st1" d="M110.77,118.8c-6.78-6.78-8.16-16.38-3.09-21.46c5.07-5.07,14.68-3.69,21.46,3.09
	c6.78,6.78,8.16,16.39,3.09,21.46C127.15,126.96,117.55,125.58,110.77,118.8"/>
<path id="Mushroom" class="st1" d="M83.94,96.28c11.03,18.05-12.56,7.28-15.4,16.5c26.56-3.19,1.28,34.06-21.68,3.22
	c-13.93-35.84,31-37.54,14.18-16.73c9.32,2.5,12.74-23.21,22.16-4.27L83.94,96.28z"/>
<path id="Small_Banana_x3F_" class="st1" d="M162.66,82.76c-7.32-7.29-12.96-15.94-15.08-26.71c-0.22-1.11-1.21-1.89-2.34-1.9
	c-1.2-0.01-2.46,0.6-2.87,1.73c-6.01,16.22,2.82,28.92,14.51,32.58c2.24,0.7,5.43,0.92,6.32-1.25
	C164.02,86.44,163.46,83.55,162.66,82.76"/>
<path id="Grape" class="st1" d="M101.21,124.32c0,1.95-1.58,3.53-3.53,3.53c-1.95,0-3.53-1.58-3.53-3.53c0-1.95,1.58-3.53,3.53-3.53
	C99.63,120.8,101.21,122.38,101.21,124.32"/>
<path id="what_is_this_x3F_" class="st1" d="M188.31,98.27c-1.7,3.05-5.57,4.12-8.6,2.37c-2.76-1.59-3.9-5.18-2.55-8.07
	c1.28-2.73,4.21-4.07,6.97-3.49c0.2,0.04,0.38,0.17,0.49,0.34c0.74,1.09,0.89,1.17,2.1,1.16c0.21,0,0.42,0.07,0.56,0.22
	C189.21,92.73,189.71,95.77,188.31,98.27"/>
<path id="Strawberry" class="st1" d="M152.58,127.44c0.76,0.83,1.86,1.28,2.99,1.22c6.83-0.4,18.91-10.26,15.48-18.39l0.88,0.25
	c-0.64-1.57-2.31-3.16-4.59-4.31c1.21-0.03,2.42,0.08,3.63,0.28c-1.04-1.03-5.82-2.88-8.04-2.49c0.83-1.5,1.96-2.6,3.62-3
	c-1.15-1.47-3.01-0.03-4.68,2.81c-1.63-1.78-6.19-2.9-7.71-2.88c0.45,0.5,1.13,1.06,1.94,1.54c-2.79-0.21-4.3-0.02-4.91,0.44
	l1.12,0.6C145.62,106.31,145.91,120.15,152.58,127.44z"/>
</svg>
